# xmcd database file
#
# Track frame offsets:
# 151
# 18303
# 34989
# 53401
# 72126
# 85116
# 104108
# 121035
# 138296
# 163244
#
# Disc length: 2500 seconds
#
# Revision: 0
# Processed by: cddbd v1.5.1PL2 Copyright (c) Steve Scherf et al.
# Submitted via: CD-Runner 2005.30
#
DISCID=7e09c20a
DTITLE=Hot Toddy - Isaac and Blewett - Live at The Black Box
DYEAR=1900
DGENRE=Blues
TTITLE0=hard times
TTITLE1=love for my lady
TTITLE2=come on down to the country
TTITLE3=chignecto
TTITLE4=help me make it te spring
TTITLE5=after the fire
TTITLE6=everything she got
TTITLE7=look around
TTITLE8=wrong time right place/moving dues
TTITLE9=elephants
EXTD=
EXTT0=
EXTT1=
EXTT2=
EXTT3=
EXTT4=
EXTT5=
EXTT6=
EXTT7=
EXTT8=
EXTT9=
PLAYORDER=
